<svg xmlns="http://www.w3.org/2000/svg" width="20" height="20" viewBox="0 0 845 845">
<path fill="currentColor" fill-rule="evenodd" d="M 186.5,-0.5 C 192.833,-0.5 199.167,-0.5 205.5,-0.5C 233.713,4.54555 250.546,21.2122 256,49.5C 256.667,152.5 256.667,255.5 256,358.5C 254.932,363.235 252.099,366.402 247.5,368C 227.167,368.667 206.833,368.667 186.5,368C 159.57,363.07 143.07,347.237 137,320.5C 136.333,229.833 136.333,139.167 137,48.5C 142.768,21.2318 159.268,4.89843 186.5,-0.5 Z M 605.5,-0.5 C 611.833,-0.5 618.167,-0.5 624.5,-0.5C 653.254,4.08546 670.421,20.7521 676,49.5C 676.667,139.167 676.667,228.833 676,318.5C 674.138,331.224 668.804,342.224 660,351.5C 635.667,311.833 611.333,272.167 587,232.5C 578.895,223.03 568.728,217.03 556.5,214.5C 555.505,159.905 555.171,105.238 555.5,50.5C 558.995,26.8248 571.995,10.6582 594.5,2C 598.312,1.20451 601.979,0.371179 605.5,-0.5 Z M 555.5,50.5 C 555.171,105.238 555.505,159.905 556.5,214.5C 555.167,187.508 554.5,160.175 554.5,132.5C 554.5,104.998 554.833,77.6646 555.5,50.5 Z M 502.5,229.5 C 519.503,229.333 536.503,229.5 553.5,230C 561.553,231.732 568.386,235.565 574,241.5C 614.584,307.667 654.918,374 695,440.5C 700.453,449.604 701.786,459.271 699,469.5C 692.838,481.162 686.171,492.496 679,503.5C 672.888,491.105 664.721,480.272 654.5,471C 644.618,464.038 633.618,460.038 621.5,459C 533.5,458.333 445.5,458.333 357.5,459C 339.514,460.909 324.681,468.743 313,482.5C 299.667,505.167 286.333,527.833 273,550.5C 259.813,574.52 260.479,598.186 275,621.5C 286.253,640.336 297.253,659.336 308,678.5C 310.783,682.951 313.95,687.117 317.5,691C 306.167,691.667 294.833,691.667 283.5,691C 271.695,688.517 262.862,682.017 257,671.5C 219.064,607.904 180.731,544.57 142,481.5C 136.546,472.444 134.88,462.778 137,452.5C 150.248,429.668 163.748,407.001 177.5,384.5C 201.754,384.615 226.087,384.448 250.5,384C 261.675,380.825 268.842,373.658 272,362.5C 272.17,319.929 272.67,277.429 273.5,235C 275.392,234.027 277.392,233.36 279.5,233C 353.994,231.717 428.328,230.55 502.5,229.5 Z M 324.5,366.5 C 351.828,365.994 364.662,379.327 363,406.5C 359.318,420.18 350.485,428.347 336.5,431C 316.194,432.434 303.694,423.267 299,403.5C 297.879,384.466 306.379,372.133 324.5,366.5 Z M 573.5,366.5 C 600.309,365.808 613.142,378.808 612,405.5C 606.563,424.256 594.063,432.756 574.5,431C 555.124,425.957 546.291,413.457 548,393.5C 550.926,379.078 559.426,370.078 573.5,366.5 Z M 359.5,467.5 C 446.501,467.333 533.501,467.5 620.5,468C 638.058,469.898 651.892,478.065 662,492.5C 675.333,515.833 688.667,539.167 702,562.5C 707.569,576.037 707.902,589.704 703,603.5C 688.733,629.424 674.067,655.091 659,680.5C 651.223,689.306 641.723,695.473 630.5,699C 538.535,700.654 446.535,700.988 354.5,700C 338.424,697.218 325.924,689.051 317,675.5C 303.667,652.167 290.333,628.833 277,605.5C 271.454,592.289 271.121,578.955 276,565.5C 289.494,540.509 303.494,515.842 318,491.5C 328.232,477.138 342.066,469.138 359.5,467.5 Z M 502.5,503.5 C 521.17,503.333 539.836,503.5 558.5,504C 579.1,510.694 588.6,524.861 587,546.5C 582.603,563.564 571.77,573.731 554.5,577C 538.5,577.667 522.5,577.667 506.5,577C 482.632,571.786 471.798,556.953 474,532.5C 478.358,517.643 487.858,507.976 502.5,503.5 Z M 278.5,706.5 C 277.167,706.5 276.5,707.167 276.5,708.5C 275.733,707.828 275.066,706.995 274.5,706C 276.066,705.235 277.399,705.402 278.5,706.5 Z M 278.5,706.5 C 295.495,707.511 312.495,707.678 329.5,707C 339.377,722.585 348.877,738.418 358,754.5C 374.854,778.344 397.688,792.844 426.5,798C 474.871,798.976 523.204,798.643 571.5,797C 577.031,793.067 578.531,787.9 576,781.5C 561.959,757.917 547.792,734.417 533.5,711C 551.5,710.333 569.5,710.333 587.5,711C 599.793,731.751 611.959,752.585 624,773.5C 633.197,799.9 626.697,821.4 604.5,838C 598.942,840.793 593.275,842.959 587.5,844.5C 530.5,844.5 473.5,844.5 416.5,844.5C 378.917,836.617 348.084,817.617 324,787.5C 307.652,761.471 291.819,735.137 276.5,708.5C 276.5,707.167 277.167,706.5 278.5,706.5 Z M 402.5,711.5 C 436.336,710.17 470.336,710.17 504.5,711.5C 510.721,721.276 515.888,731.609 520,742.5C 524.572,757.07 521.405,769.57 510.5,780C 499.887,787.064 488.22,789.397 475.5,787C 458.015,783.499 443.515,774.999 432,761.5C 421.384,745.264 411.551,728.598 402.5,711.5 Z"/>
</svg>